# AST/ASF file generated using VICON BodyLanguage
# -----------------------------------------------
:version 1.10
:name VICON
:units
  mass 1.0
  length 0.45
  angle deg
:documentation
   .ast/.asf automatically generated from VICON data using
   VICON BodyBuilder and BodyLanguage model FoxedUp or BRILLIANT.MOD
:root
   order TX TY TZ RX RY RZ
   axis XYZ
   position 0 0 0  
   orientation 0 0 0 
:bonedata
  begin
     id 1 
     name lhipjoint
     direction 0.630305 -0.712092 0.309259 
     length 2.29033 
     axis 0 0 0  XYZ
  end
  begin
     id 2 
     name lfemur
     direction 0.34202 -0.939693 0  
     length 6.43538  
     axis 0 0 20  XYZ
    dof rx ry rz
    limits (-160.0 20.0)
           (-70.0 70.0)
           (-60.0 70.0)
  end
  begin
     id 3 
     name ltibia
     direction 0.34202 -0.939693 0   
     length 7.43097   
     axis 0 0 20   XYZ
    dof rx
    limits (-10.0 170.0)
  end
  begin
     id 4 
     name lfoot
     direction 0.0334653 -0.0919451 0.995202   
     length 1.78438   
     axis -90 7.62852e-016 20   XYZ
    dof rx rz
    limits (-45.0 90.0)
           (-70.0 20.0)
  end
  begin
     id 5 
     name ltoes
     direction 1.53535e-011 -4.21933e-011 1   
     length 0.90832   
     axis -90 7.62852e-016 20   XYZ
    dof rx
    limits (-90.0 20.0)
  end
  begin
     id 6 
     name rhipjoint
     direction -0.682059 -0.67077 0.291312   
     length 2.43143  
     axis 0 0 0  XYZ 
  end
  begin
     id 7 
     name rfemur
     direction -0.34202 -0.939693 0   
     length 6.63488   
     axis 0 0 -20   XYZ
    dof rx ry rz
    limits (-160.0 20.0)
           (-70.0 70.0)
           (-70.0 60.0)
  end
  begin
     id 8 
     name rtibia
     direction -0.34202 -0.939693 0   
     length 6.86532   
     axis 0 0 -20   XYZ
    dof rx
    limits (-10.0 170.0)
 end
 begin
     id 9 
     name rfoot
     direction -0.105199 -0.289033 0.951521   
     length 1.77126  
     axis -90 -7.62852e-016 -20   XYZ
    dof rx rz
    limits (-45.0 90.0)
           (-20.0 70.0)
  end
  begin
     id 10 
     name rtoes
     direction -1.53551e-011 -4.21978e-011 1   
     length 0.889273   
     axis -90 -7.62852e-016 -20   XYZ
    dof rx
    limits (-90.0 20.0)
  end
  begin
     id 11 
     name lowerback
     direction -0.0514305 0.998089 0.034245   
     length 2.02077   
     axis 0 0 0   XYZ
    dof rx ry rz
    limits (-20.0 45.0)
           (-30.0 30.0)
           (-30.0 30.0)
  end
  begin
     id 12 
     name upperback
     direction 0.0203189 0.999449 -0.0262315   
     length 2.01413   
     axis 0 0 0   XYZ
    dof rx ry rz
    limits (-20.0 45.0)
           (-30.0 30.0)
           (-30.0 30.0)
  end
  begin
     id 13 
     name thorax
     direction 0.0452736 0.998142 -0.0407729   
     length 2.02986   
     axis 0 0 0   XYZ
    dof rx ry rz
    limits (-20.0 45.0)
           (-30.0 30.0)
           (-30.0 30.0)
  end
  begin
     id 14 
     name lowerneck
     direction -0.0180464 0.999645 -0.0195774   
     length 1.59034   
     axis 0 0 0   XYZ
    dof rx ry rz
    limits (-20.0 45.0)
           (-30.0 30.0)
           (-30.0 30.0)
  end
  begin
     id 15 
     name upperneck
     direction 0.0732272 0.979935 -0.18538   
     length 1.57486   
     axis 0 0 0   XYZ
    dof rx ry rz
    limits (-20.0 45.0)
           (-30.0 30.0)
           (-30.0 30.0)
  end
  begin
     id 16
     name head
     direction 0.0252963 0.997909 -0.059472  
     length 1.60334  
     axis 0 0 0   XYZ
    dof rx ry rz
    limits (-20.0 45.0)
           (-30.0 30.0)
           (-30.0 30.0)
  end
  begin
     id 17 
     name lclavicle
     direction 0.943819 0.330449 0.00315172  
     length 3.50322  
     axis 0 0 0   XYZ
    dof ry rz
    limits (-20.0 10.0)
           (0.0 20.0)
  end
  begin
     id 18 
     name lhumerus
     direction 1 -4.48949e-011 2.22502e-028   
     length 4.63208   
     axis 180 -30 -90   XYZ
    dof rx ry rz
    limits (-60.0 90.0)
           (-90.0 90.0)
           (-90.0 90.0)
  end
  begin
     id 19
     name lradius
     direction 1 -4.48967e-011 -4.10197e-027   
     length 3.41924   
     axis 180 -30 -90   XYZ
    dof rx
    limits (-10.0 170.0)
  end
  begin
     id 20
     name lwrist
     direction 1 -4.48987e-011 -1.24264e-027   
     length 1.70962   
     axis 2.50585e-015 90 90   XYZ
    dof ry
    limits (-180.0 0.0)
 end
  begin
     id 21 
     name lhand
     direction 1 -4.48983e-011 -2.48528e-027   
     length 0.62537   
     axis 1.58582e-015 90 90   XYZ
    dof rx rz
    limits (-90.0 90.0)
           (-45.0 45.0)
  end
  begin
     id 22 
     name lfingers
     direction 1 -4.48896e-011 -4.97056e-027   
     length 0.50419   
     axis 3.17164e-015 90 90   XYZ
    dof rx
    limits (0.0 90.0)
  end
  begin
     id 23
     name lthumb
     direction 0.707107 -6.34803e-011 0.707107   
     length 0.723919   
     axis -90 45 2.85299e-015   XYZ
    dof rx rz
    limits (-45.0 45.0)
           (-45.0 45.0)
  end
  begin
     id 24 
     name rclavicle
     direction -0.964499 0.260664 -0.0423695   
     length 3.91997  
     axis 0 0 0   XYZ 
    dof ry rz
    limits (-10.0 20.0)
           (-20.0 0.0)
  end
  begin
     id 25 
     name rhumerus
     direction -1 -4.48957e-011 -1.98656e-027  
     length 4.4064   
     axis 180 30 90   XYZ
    dof rx ry rz
    limits (-90.0 60.0)
           (-90.0 90.0)
           (-90.0 90.0)
  end
  begin
     id 26 
     name rradius
     direction -1 -4.48968e-011 1.96972e-027   
     length 3.44675   
     axis 180 30 90   XYZ
    dof rx
    limits (-10.0 170.0)
  end
  begin
     id 27 
     name rwrist
     direction -1 -4.48974e-011 -1.24264e-027   
     length 1.72338   
     axis 2.50585e-015 -90 -90   XYZ
    dof ry
    limits (-180.0 0.0)
  end
  begin
     id 28
     name rhand
     direction -1 -4.48901e-011 -2.48528e-027   
     length 0.513674   
     axis 1.58582e-015 -90 -90   XYZ
    dof rx rz
    limits (-90.0 90.0)
           (-45.0 45.0)
  end
  begin
     id 29
     name rfingers
     direction -1 -4.48946e-011 -4.97056e-027   
     length 0.414137   
     axis 3.17164e-015 -90 -90   XYZ
    dof rx
    limits (0.0 90.0)
  end
  begin
     id 30
     name rthumb
     direction -0.707107 -6.34859e-011 0.707107   
     length 0.59462   
     axis -90 -45 -2.85299e-015   XYZ
    dof rx rz
    limits (-45.0 45.0)
           (-45.0 45.0)
  end
:hierarchy
  begin
    root lhipjoint rhipjoint lowerback
    lhipjoint lfemur
    lfemur ltibia
    ltibia lfoot
    lfoot ltoes
    rhipjoint rfemur
    rfemur rtibia
    rtibia rfoot
    rfoot rtoes
    lowerback upperback
    upperback thorax
    thorax lowerneck lclavicle rclavicle
    lowerneck upperneck
    upperneck head
    lclavicle lhumerus
    lhumerus lradius
    lradius lwrist
    lwrist lhand lthumb
    lhand lfingers
    rclavicle rhumerus
    rhumerus rradius
    rradius rwrist
    rwrist rhand rthumb
    rhand rfingers
  end

#!OML:ASF E:\inclinewalkrobotboard\Project 1\Capture day 1\Session 1\subject1.ASF
:FULLY-SPECIFIED
:DEGREES
237
root 7.35487 16.3439 -13.2991 -170.501 -15.172 -178.643
lowerback -5.51748 -1.71637 -5.94102
upperback 0.450952 -1.99758 2.46373
thorax 3.86456 -1.15159 5.73942
lowerneck -6.28254 -3.01676 -5.75129
upperneck 17.8504 -5.47053 6.87313
head 6.79744 -2.79374 2.70373
rclavicle 2.48481e-015 2.06736e-014
rhumerus -43.4798 -26.0617 -70.736
rradius 27.5416
rwrist 14.9224
rhand -20.1502 -43.4772
rfingers 7.12502
rthumb 6.19477 -73.3666
lclavicle 2.48481e-015 2.06736e-014
lhumerus -24.3898 -1.94922 95.0105
lradius 26.8447
lwrist -14.4793
lhand -40.809 -23.7724
lfingers 7.12502
lthumb -13.7475 5.7534
rfemur -16.052 2.57377 23.3796
rtibia 12.2173
rfoot -9.28378 7.93094
rtoes -16.9321
lfemur -10.7693 -7.28413 -18.9632
ltibia 37.5458
lfoot -11.0618 -10.3693
ltoes -37.383
238
root 7.34081 16.3469 -13.2174 -170.429 -14.7651 -178.787
lowerback -5.63532 -1.69047 -6.15321
upperback 0.516657 -1.93573 2.38926
thorax 3.99602 -1.12958 5.78493
lowerneck -7.15327 -2.89725 -5.72883
upperneck 18.3948 -5.29093 6.82832
head 7.11353 -2.68718 2.68854
rclavicle -1.12065e-014 5.41688e-015
rhumerus -43.4743 -26.778 -70.5917
rradius 27.6575
rwrist 15.2797
rhand -19.961 -43.6292
rfingers 7.12502
rthumb 6.37746 -73.5132
lclavicle -1.12065e-014 5.41688e-015
lhumerus -23.6713 -5.22608 96.3875
lradius 29.4185
lwrist -12.6781
lhand -40.6391 -23.5304
lfingers 7.12502
lthumb -13.5839 6.00647
rfemur -16.4887 3.16171 23.0225
rtibia 12.4183
rfoot -9.62028 7.72566
rtoes -21.9758
lfemur -10.2086 -7.03438 -19.5602
ltibia 35.1668
lfoot -11.6373 -8.79444
ltoes -35.9322
239
root 7.33124 16.3521 -13.1321 -170.33 -14.4337 -179.032
lowerback -5.66905 -1.7137 -6.49862
upperback 0.547923 -1.93369 2.29195
thorax 4.05687 -1.13676 5.87845
lowerneck -7.60256 -2.83845 -5.76775
upperneck 18.6047 -5.22339 6.98269
head 7.26194 -2.63339 2.74583
rclavicle 9.41742e-015 -5.66536e-015
rhumerus -43.5843 -27.5443 -70.4807
rradius 27.931
rwrist 15.6507
rhand -19.7862 -43.8314
rfingers 7.12502
rthumb 6.54618 -73.7102
lclavicle 9.41742e-015 -5.66536e-015
lhumerus -22.9874 -8.31777 97.4394
lradius 31.5544
lwrist -12.0485
lhand -41.0771 -24.1171
lfingers 7.12502
lthumb -14.0059 5.39103
rfemur -16.9896 3.64599 22.5659
rtibia 12.567
rfoot -7.43419 7.10307
rtoes -16.0088
lfemur -9.48113 -8.31803 -20.0097
ltibia 35.2106
lfoot -12.6912 -8.64531
ltoes -32.0376
240
root 7.31791 16.357 -13.0482 -170.276 -14.4858 -179.196
lowerback -5.60211 -1.8192 -6.67256
upperback 0.524937 -2.06284 2.21675
thorax 4.01855 -1.20125 5.88666
lowerneck -7.59864 -2.74429 -5.63408
upperneck 18.4112 -5.07988 6.97609
head 7.18511 -2.55134 2.73423
rclavicle -3.91761e-014 -2.88238e-015
rhumerus -43.6337 -28.2169 -70.361
rradius 27.9345
rwrist 16.0265
rhand -19.8575 -44.2792
rfingers 7.12502
rthumb 6.47738 -74.1601
lclavicle -3.91761e-014 -2.88238e-015
lhumerus -22.4559 -10.948 98.1811
lradius 33.6547
lwrist -11.8712
lhand -40.9158 -25.0506
lfingers 7.12502
lthumb -13.8505 4.46827
rfemur -17.3052 3.82564 22.1901
rtibia 12.5107
rfoot -7.2818 6.73478
rtoes -16.1129
lfemur -8.90814 -8.74323 -20.5137
ltibia 33.4462
lfoot -13.4822 -9.35502
ltoes -29.8203
241
root 7.29657 16.3593 -12.9693 -170.292 -14.4163 -179.215
lowerback -5.60065 -1.86109 -6.65457
upperback 0.518061 -2.11811 2.17356
thorax 4.01652 -1.22729 5.82512
lowerneck -7.44617 -2.65828 -5.50435
upperneck 18.1304 -4.93651 6.91429
head 7.05279 -2.47742 2.70676
rclavicle -1.76421e-015 -3.85145e-015
rhumerus -43.6404 -28.3648 -70.4495
rradius 27.8994
rwrist 15.9321
rhand -19.901 -45.3712
rfingers 7.12502
rthumb 6.43538 -75.2534
lclavicle -1.76421e-015 -3.85145e-015
lhumerus -22.0362 -13.0346 98.7213
lradius 35.8698
lwrist -12.3141
lhand -40.7911 -25.3551
lfingers 7.12502
lthumb -13.7303 4.17186
rfemur -17.5202 3.95748 21.9844
rtibia 12.4244
rfoot -7.04404 6.63105
rtoes -16.2984
lfemur -8.15829 -9.00801 -20.8638
ltibia 31.6844
lfoot -14.4254 -9.72852
ltoes -29.5558
242
root 7.27147 16.3668 -12.9028 -170.696 -14.6709 -179.289
lowerback -5.35524 -1.99949 -6.65825
upperback 0.641059 -2.31382 2.15168
thorax 4.03602 -1.32818 5.78888
lowerneck -7.44413 -2.57056 -5.26698
upperneck 18.0884 -4.77455 6.58842
head 7.0154 -2.40718 2.57518
rclavicle -2.79852e-015 -1.14425e-014
rhumerus -43.7791 -28.2015 -70.6344
rradius 28.0345
rwrist 15.3566
rhand -20.4138 -45.8832
rfingers 7.12502
rthumb 5.9403 -75.78
lclavicle -2.79852e-015 -1.14425e-014
lhumerus -21.7007 -14.8977 99.2779
lradius 37.588
lwrist -12.8841
lhand -41.2576 -26.0577
lfingers 7.12502
lthumb -14.1799 3.43835
rfemur -17.0374 4.08125 21.7308
rtibia 12.0986
rfoot -6.89909 6.18232
rtoes -17.7487
lfemur -6.8173 -9.39164 -21.2692
ltibia 29.7241
lfoot -15.3698 -9.87551
ltoes -30.6746
243
root 7.24548 16.3615 -12.8251 -170.534 -14.4856 -179.391
lowerback -5.64783 -2.02992 -6.66282
upperback 0.603754 -2.33484 2.1209
thorax 4.16427 -1.34175 5.74953
lowerneck -8.1218 -2.44286 -5.41689
upperneck 18.7312 -4.55871 6.39431
head 7.32969 -2.31778 2.54979
rclavicle -3.99122e-015 -1.33558e-014
rhumerus -43.9459 -28.2945 -70.5941
rradius 28.1972
rwrist 15.7396
rhand -20.147 -44.9969
rfingers 7.12502
rthumb 6.19789 -74.8862
lclavicle -3.99122e-015 -1.33558e-014
lhumerus -21.1623 -16.2413 99.6707
lradius 39.0163
lwrist -13.6838
lhand -41.0011 -26.2244
lfingers 7.12502
lthumb -13.9326 3.28883
rfemur -17.5099 4.08571 21.4119
rtibia 12.3493
rfoot -8.82279 6.65307
rtoes -30.7941
lfemur -6.20697 -9.45586 -21.6885
ltibia 27.9257
lfoot -16.2207 -9.65662
ltoes -31.0885
244
root 7.22025 16.3596 -12.7487 -170.405 -14.5189 -179.567
lowerback -5.81834 -2.09027 -6.75242
upperback 0.571872 -2.39679 2.08085
thorax 4.23882 -1.37567 5.74749
lowerneck -8.09607 -2.34615 -5.45367
upperneck 18.6507 -4.3777 6.27142
head 7.28548 -2.24052 2.53275
rclavicle 1.76204e-014 -2.31833e-014
rhumerus -43.9453 -28.068 -70.8711
rradius 28.1756
rwrist 14.8592
rhand -21.625 -43.1858
rfingers 7.12502
rthumb 4.77083 -73.1121
lclavicle 1.76204e-014 -2.31833e-014
lhumerus -20.4718 -17.5427 99.9413
lradius 39.8996
lwrist -15.2289
lhand -41.4136 -25.9984
lfingers 7.12502
lthumb -14.3302 3.48709
rfemur -17.7597 3.86898 21.0516
rtibia 12.3797
rfoot -9.72833 6.60152
rtoes -35.3211
lfemur -5.59876 -9.5089 -22.0974
ltibia 26.23
lfoot -16.7386 -9.43278
ltoes -30.284
245
root 7.19766 16.3599 -12.6675 -170.427 -14.6329 -179.455
lowerback -5.78328 -2.09118 -6.56351
upperback 0.519973 -2.41757 2.12155
thorax 4.16084 -1.37847 5.68242
lowerneck -8.00783 -2.28194 -5.37954
upperneck 18.4998 -4.2569 6.14726
head 7.2091 -2.18535 2.49149
rclavicle 7.46374e-015 -8.00108e-015
rhumerus -44.1349 -28.1228 -70.6663
rradius 28.0334
rwrist 15.3381
rhand -21.5937 -42.9456
rfingers 7.12502
rthumb 4.80111 -72.8712
lclavicle 7.46374e-015 -8.00108e-015
lhumerus -19.8626 -18.8715 100.238
lradius 40.6255
lwrist -15.1785
lhand -41.2321 -26.859
lfingers 7.12502
lthumb -14.1552 2.63874
rfemur -17.9495 3.82631 21.0046
rtibia 12.28
rfoot -9.75948 6.32831
rtoes -35.8712
lfemur -4.92566 -9.39773 -22.0776
ltibia 24.4531
lfoot -17.0807 -9.36227
ltoes -29.6057
246
root 7.1839 16.3618 -12.5806 -170.498 -14.7244 -179.255
lowerback -5.66252 -2.09475 -6.45111
upperback 0.457148 -2.44655 2.25494
thorax 4.03208 -1.38704 5.7608
lowerneck -8.16873 -2.16033 -5.42638
upperneck 18.536 -4.04408 6.05387
head 7.2354 -2.08703 2.48699
rclavicle 5.00813e-014 -8.24956e-015
rhumerus -44.4005 -28.3109 -70.2423
rradius 27.8018
rwrist 16.3438
rhand -21.0875 -43.1813
rfingers 7.12502
rthumb 5.28982 -73.0953
lclavicle 5.00813e-014 -8.24956e-015
lhumerus -19.3656 -19.6047 100.52
lradius 41.3021
lwrist -15.9072
lhand -40.82 -26.6443
lfingers 7.12502
lthumb -13.7582 2.88086
rfemur -18.2504 4.21704 20.9952
rtibia 12.24
rfoot -9.30895 5.80514
rtoes -37.0011
lfemur -4.35464 -9.27783 -21.865
ltibia 22.7877
lfoot -17.1754 -9.44143
ltoes -28.7673
247
root 7.1672 16.3574 -12.4893 -170.361 -14.6289 -179.417
lowerback -5.6308 -2.0809 -6.67069
upperback 0.357909 -2.41846 2.27777
thorax 3.91687 -1.37152 5.91545
lowerneck -8.16053 -1.97634 -5.50201
upperneck 18.4154 -3.74541 6.01606
head 7.17668 -1.9468 2.51448
rclavicle -4.74598e-015 -1.41634e-014
rhumerus -44.7293 -28.8584 -69.6821
rradius 27.5128
rwrist 17.3559
rhand -21.1369 -42.9025
rfingers 7.12502
rthumb 5.24219 -72.8177
lclavicle -4.74598e-015 -1.41634e-014
lhumerus -19.1145 -19.9806 100.795
lradius 41.7582
lwrist -15.8655
lhand -40.5164 -27.7523
lfingers 7.12502
lthumb -13.4655 1.79238
rfemur -18.7378 4.65306 20.5056
rtibia 12.0514
rfoot -8.00585 5.34396
rtoes -35.0458
lfemur -4.01074 -9.17522 -22.1217
ltibia 21.3231
lfoot -17.2258 -9.52172
ltoes -27.6191
